<svg fill="#ff0000" width="32px" height="32px" viewBox="-0.04 0 0.96 0.96" xmlns="http://www.w3.org/2000/svg"><path d="M0.653 0.16V0.086C0.653 0.038 0.614 0 0.567 0H0.313A0.086 0.086 0 0 0 0.228 0.088v0V0.16H0v0.08h0.023c0.008 0.001 0.015 0.004 0.021 0.009l0 0c0.005 0.006 0.008 0.014 0.01 0.022l0 0 0.047 0.604c0.004 0.074 0.004 0.085 0.09 0.085h0.498c0.086 0 0.086 -0.011 0.09 -0.085l0.047 -0.604c0.001 -0.009 0.005 -0.016 0.01 -0.023l0 0a0.04 0.04 0 0 1 0.02 -0.008h0.023v-0.08h-0.227zM0.28 0.087c0 -0.024 0.019 -0.038 0.044 -0.038h0.229c0.025 0 0.046 0.014 0.046 0.038V0.16h-0.32zM0.259 0.8l-0.026 -0.48h0.051l0.026 0.48zm0.209 0H0.413V0.32h0.055zm0.154 0h-0.051l0.026 -0.48h0.051z"/></svg>